<?xml version="1.0" encoding="utf-8"?>
<!-- Generator: Adobe Illustrator 19.2.1, SVG Export Plug-In . SVG Version: 6.00 Build 0)  -->
<svg version="1.1" id="layer" xmlns="http://www.w3.org/2000/svg" xmlns:xlink="http://www.w3.org/1999/xlink" x="0px" y="0px"
	 viewBox="0 0 652 652" style="enable-background:new 0 0 652 652;" xml:space="preserve">
<style type="text/css">
	.st0{fill:#F5BF0D;}
</style>
<path class="st0" d="M382,292.1h-3c0,0,0,0,0,0h-29.9c0,0,0,0,0,0h-3.4c-0.8,0.6-1.3,1.4-1.3,2.5c0,0.5,0.1,0.9,0.3,1.3
	c4.4,1.6,8,4.2,10.6,7.6c2.3,2.8,4.1,6.7,4.1,11.9V362c0,25.8-9.9,41.8-47.8,40.7c-14.6-2-29.9-9-29.9-32.9v-57.7
	c0-4.2,0.2-7.2,0.9-9.4c0.1-0.3,0.2-0.7,0.4-1c0.6-1.3,1.5-2.3,2.7-3c1.3-0.9,2.8-1.8,4.6-2.4c0.3-0.4,0.6-0.8,0.6-1.4
	c0-1.1-1-1.9-2-2.5l0.1-0.4c-0.4-0.2-0.3,0.2-0.7,0.2c-0.4,0-1.3-0.4-1.7-0.2h-36.6c-0.6-0.5-1.9-0.1-2.7-0.1
	c-0.6,0-1.8,0.8-1.8,2.5c0,0.8,0.4,1.4,1,1.9c1.5,0.4,2.8,1,4,1.7c1.8,0.6,2.9,1.6,3.7,3.2c0.7,1,1.1,2.2,1.1,3.4
	c0,0.4,0,0.7-0.1,1.1c0.2,2.2,0.3,5.1,0.3,8.8L255,370c0,32.5,25.4,41.4,50.8,42.1c48.8,1.3,62.3-12.7,62.3-49l0.2-45.1
	c0-2.8,0.4-5.2,1.1-7.5c1.5-6.6,6.8-12,13.9-14.6c0.2-0.4,0.2-0.8,0.2-1.2C383.6,293.6,383,292.6,382,292.1"/>
<path class="st0" d="M68.3,358.2c30.9,17.4,56.5,19.9,56.8,20l0.1,0l0.2,0c12.9,3.3,28.9,11.4,31.6,23.6c2.1,6.6,0.4,11.8-1.8,15.9
	c9.1-8.7,11.6-21.3,9.4-28.2c-2.6-11.3-17.4-21.3-29.4-26.4c-2.2-0.7-29.2-9-55.4-35c-15.8-18.1-22.9-37-20.9-56.1
	c2.3-22.4,17.5-38.5,26.1-47.1c-20.4,9.1-36.4,24.8-47.4,44.9l-0.5,1.4C36.1,273.5,16.9,324.8,68.3,358.2"/>
<path class="st0" d="M118.2,403.1c7.7,0.3,26.6,1.6,28.9,11.6c1.1,4.7-1.7,10-1.9,10.1l0.8-0.6c3.2-4,9.9-12.3,7.3-21.3
	c-2.2-9.9-16.1-17.6-28.9-20.9c-2.4-0.2-27.4-3.1-58.2-20.5c-38.6-25.1-39.4-61.7-36.7-80.7c-5.4,13.2-8.4,27.8-8.4,43.1
	c0,8.2,1.2,17.7,2.3,22.6l0.3,1.3c0,0,5.5,30.2,43,45.6c20.3,8.3,41.3,9.8,48.1,9.7L118.2,403.1z"/>
<path class="st0" d="M176,375.8c-2.4-11.7-14.1-26.1-33.6-41.6c-0.3-0.2-25.9-19.2-42.2-45.6l-0.1-0.1l-0.1-0.1
	c-5.3-12.9-5.5-25.2-0.6-36.6c8.4-19.2,29.1-30.5,38.2-34.7c3.9-1.9,12.3-4.7,29.1-5.7c-7.9-2-21.9-1.9-24.3-1.9
	c-10.5,0-31.3,4-35.1,5.7c-3,1.3-8.9,3.4-13.5,6.7c-4.6,3.3-28.3,20.2-31.4,50.7c-1.8,18,4.9,36,19.9,53.2
	c26,25.7,53.6,33.9,53.9,34l0.1,0l0.1,0c13.4,5.7,28.8,16.3,31.6,28.8c0.9,9.4,2.4,13.8-4.9,27.8C173.4,406,179.3,389.1,176,375.8"
	/>
<path class="st0" d="M217.1,334.8c0,0,1.2,20,1.1,37.7l-6.2-0.1c-0.8,6.2-3.7,13.3-5,18.2c15.2-2.9,16.8-5.7,19.1-9.1
	c1.5-1.8,3.6-59.4,3.5-61.3c-0.1-2.5-9.4-10.3-11.2-10.1c-11.4,12.5-26.2,25.1-32.8,24c-4.8-0.8-9.2-2.4-12.3-5.5
	c-12-12.1-5.5-26.9,1.2-27c10.8-1.2,18,22.3,18,22.3c14.4-5.7,14.4-11.5,14.4-11.5c1.4-4.9-7.7-39.3-9.5-50.9
	c-4.1,8.8-6.5,11.7-6.5,11.7c-17.8-9.1-36.6-5.7-48.6,3.4c-16.8,16.1-25,29.3-23.7,30.9c13.5,14.3,25.7,23.7,26,23.9
	c14.1,11.2,31.7,27.9,35,43.7c1.9,12.9-0.5,23.2-8.8,37.9C188.2,395.7,205.5,378.6,217.1,334.8"/>
<path class="st0" d="M143.5,415.4c-1.2-2.7-5-7.9-26.5-8.7c-0.4,0-0.7,0-1-0.1c-10.2,0.2-30.2-1.1-50.7-9.9
	c-16.3-7-26.4-15.5-32.8-23.4c16.9,34.8,50.9,58.5,90.3,58.5c3.6,0,5.4,0.2,8.7-0.4c0,0,2.3-0.6,2.3-0.7
	C146.5,424.6,144.5,417.6,143.5,415.4"/>
<path class="st0" d="M124.4,381.8c0,0,0.1,0,0.1,0c0.1,0,0.1,0,0.2,0L124.4,381.8z"/>
<path class="st0" d="M135,363.1C135.1,363.1,135.1,363.1,135,363.1c0.1,0.1,0.2,0.1,0.2,0.1L135,363.1z"/>
<path class="st0" d="M103.5,286.9c0,0,0-0.1,0-0.1c0,0-0.1-0.1-0.1-0.1L103.5,286.9z"/>
<path class="st0" d="M141.6,223c0,8.5-6.9,15.4-15.4,15.4c8.1,0,14.7,6.3,15.3,14.2c0,0,0.1,0,0.1,0c0.6-7.9,7.1-14.1,15-14.2
	c0,0,0,0,0,0C148.3,238.3,141.6,231.4,141.6,223"/>
<path class="st0" d="M500.2,387.4c0,0,3.3,6.7,1.2,8.3c-19.4,14.2-38.2,16.4-64.5,16.4c-34.9,0-64.7-27.3-64.7-60.8
	c0-33.5,30.3-62.1,65.2-62.1c21.5,0,61.7,6.5,61.7,14.9c0,8.2-7.2,19.3-7.2,22.3c0,1.1-0.9,3.7-3.2,3.7c-1.9,0-2.6-0.6-5.2-7.5
	c-6.2-15.9-12.1-26.7-46.6-24.9c-16.3,0.9-36.6,20-35.4,53.6c1.4,39.7,26.7,52,45.6,51.7c32.4-0.5,38.2-17.5,40.7-23.5
	c1.7-3.9,3.4-7,5.6-7c1.9,0,3.8,2.1,3.8,3.5c0,1.1,1.4,5,1.4,5L500.2,387.4z"/>
<path class="st0" d="M618.9,310l-4.8-17.8l-107-0.1c0,0,0,0,0,0.1c-1.6,0.2-2.8,1.4-2.8,3c0,1.7,1.4,3.1,3.1,3.1
	c0.4,0,0.7-0.1,1.1-0.2c-0.1,0.3-0.1,0.6-0.2,0.8c3,0.1,5,2.3,5,5.4c0,1.2-0.1,3.2-0.1,3.2s-0.1,3.5-0.1,5.6v76.6
	c0,8.6-2.6,12.6-11.1,13.6c0.2,0.1,0.4,0.3,0.7,0.4c-1.1,0.5-1.9,1.5-1.9,2.8c0,1.7,1.4,3.1,3.1,3.1c0.3,0,0.5-0.1,0.7-0.2h1.5v0
	h44.7v-0.2c1.7,0,3-1.4,3-3.1c0-1.1-0.6-2.1-1.5-2.6c0.1-0.1,0.3-0.2,0.4-0.3c-5.8,0.3-12.5-3.8-12.5-12.8l-0.7-38.7h14.4
	c15.8,0,39.6,0.1,43.5,13.6c0-0.1,0.1-0.1,0.2-0.2c0.5,1,1.5,1.7,2.7,1.7c1.6,0,2.9-1.2,3-2.8h0.4v-34.4h-0.4
	c-0.1-0.2-0.3-0.4-0.7-0.6c-0.5-0.8-1.4-1.4-2.5-1.4c-1.7,0-3.1,1.4-3.1,3.1c0,0,0,0.1,0,0.1c-0.2,0.5-0.4,1-0.6,1.7
	c-1.9,7.3-24.8,11-34.9,11h-22l0.1-34.2c0-5,0.5-7.8,0.5-7.8c2.9-0.6,14.5-0.3,20.1-0.3c18.5,0,41.6,1.7,51.1,14.1
	c2.3,3,4.1,5.6,5.8,5.6c1.3,0,4.1-0.1,4.3-2.4C621.3,316.8,620.2,314,618.9,310"/>
</svg>
